/* XPM */
static char * real_player_xpm[] = {
"50 50 387 2",
"  	c #26AF15",
". 	c #26B015",
"+ 	c #229714",
"@ 	c #1F7E13",
"# 	c #218B13",
"$ 	c #26AD15",
"% 	c #218E14",
"& 	c #239E14",
"* 	c #239914",
"= 	c #24A014",
"- 	c #26B115",
"; 	c #229614",
"> 	c #239A15",
", 	c #249B15",
"' 	c #219014",
") 	c #26AB15",
"! 	c #1E7813",
"~ 	c #25A315",
"{ 	c #25A115",
"] 	c #218E13",
"^ 	c #25A515",
"/ 	c #25A516",
"( 	c #26AC15",
"_ 	c #25A915",
": 	c #249E14",
"< 	c #24A314",
"[ 	c #26AE15",
"} 	c #239714",
"| 	c #239515",
"1 	c #249F14",
"2 	c #218F14",
"3 	c #26AD16",
"4 	c #249A15",
"5 	c #218D14",
"6 	c #229114",
"7 	c #1E7A13",
"8 	c #208813",
"9 	c #1F8213",
"0 	c #25AB15",
"a 	c #24A214",
"b 	c #208713",
"c 	c #27B316",
"d 	c #249E15",
"e 	c #239C14",
"f 	c #239815",
"g 	c #229314",
"h 	c #208413",
"i 	c #25A815",
"j 	c #26A816",
"k 	c #218C13",
"l 	c #229414",
"m 	c #218914",
"n 	c #24A515",
"o 	c #249C15",
"p 	c #25A415",
"q 	c #229514",
"r 	c #218C14",
"s 	c #229014",
"t 	c #27AB17",
"u 	c #208314",
"v 	c #229214",
"w 	c #228F14",
"x 	c #239614",
"y 	c #25A615",
"z 	c #218F13",
"A 	c #1E7913",
"B 	c #239915",
"C 	c #239814",
"D 	c #26A817",
"E 	c #218A13",
"F 	c #46A048",
"G 	c #48B049",
"H 	c #27AD17",
"I 	c #26A616",
"J 	c #25AC15",
"K 	c #208513",
"L 	c #249F15",
"M 	c #239B14",
"N 	c #26AC16",
"O 	c #26AB16",
"P 	c #25A715",
"Q 	c #1E7B13",
"R 	c #84B5CD",
"S 	c #93CBDD",
"T 	c #24A415",
"U 	c #239715",
"V 	c #239D14",
"W 	c #24A114",
"X 	c #1F8113",
"Y 	c #239A14",
"Z 	c #25AA15",
"` 	c #27B115",
" .	c #1F7D13",
"..	c #C8DCF5",
"+.	c #3B88B9",
"@.	c #569AC5",
"#.	c #D5F5FF",
"$.	c #24A115",
"%.	c #1F7C13",
"&.	c #239415",
"*.	c #208614",
"=.	c #249D15",
"-.	c #25A015",
";.	c #218D13",
">.	c #27B416",
",.	c #9BC8DD",
"'.	c #46A8DB",
").	c #3C96CA",
"!.	c #C4E6F9",
"~.	c #24A315",
"{.	c #239514",
"].	c #27AE16",
"^.	c #239615",
"/.	c #218814",
"(.	c #24A414",
"_.	c #74ADCF",
":.	c #47A9F0",
"<.	c #2989D8",
"[.	c #96C7E5",
"}.	c #208913",
"|.	c #218A14",
"1.	c #1F7F13",
"2.	c #218913",
"3.	c #25A616",
"4.	c #C5F2FF",
"5.	c #42B3FA",
"6.	c #3499E6",
"7.	c #458DBA",
"8.	c #448A48",
"9.	c #219114",
"0.	c #24A015",
"a.	c #25A416",
"b.	c #208313",
"c.	c #25A116",
"d.	c #87BAD7",
"e.	c #4999C8",
"f.	c #44BCFE",
"g.	c #39A7E8",
"h.	c #2E88C7",
"i.	c #27AE17",
"j.	c #208613",
"k.	c #25A215",
"l.	c #25A216",
"m.	c #CBF2FF",
"n.	c #4899B9",
"o.	c #4BB8F6",
"p.	c #3BBBFE",
"q.	c #30AFF3",
"r.	c #2697E6",
"s.	c #4599D9",
"t.	c #CAEEFF",
"u.	c #27AF16",
"v.	c #26A916",
"w.	c #228E14",
"x.	c #229115",
"y.	c #1F8013",
"z.	c #27AF17",
"A.	c #218B14",
"B.	c #47A949",
"C.	c #69A4C6",
"D.	c #48B3DF",
"E.	c #33B5FE",
"F.	c #1C92F4",
"G.	c #24A514",
"H.	c #25A016",
"I.	c #26AA16",
"J.	c #3AB9F4",
"K.	c #2EBCFC",
"L.	c #34BCFD",
"M.	c #27A6F9",
"N.	c #1B93E4",
"O.	c #3798D8",
"P.	c #65ABD7",
"Q.	c #26A716",
"R.	c #459148",
"S.	c #2DB3FE",
"T.	c #3AC3FD",
"U.	c #1B93DC",
"V.	c #3EA2E5",
"W.	c #27B116",
"X.	c #5DB1CB",
"Y.	c #38A2CB",
"Z.	c #3BB5FD",
"`.	c #34C2FE",
" +	c #33BCF5",
".+	c #0E92ED",
"++	c #1B93EB",
"@+	c #47AAE6",
"#+	c #599ED4",
"$+	c #249C16",
"%+	c #229215",
"&+	c #27B216",
"*+	c #A7C9E5",
"=+	c #5696B8",
"-+	c #3AB5E8",
";+	c #2BADFF",
">+	c #A7CADC",
",+	c #47AC49",
"'+	c #208A13",
")+	c #28B217",
"!+	c #57A8D8",
"~+	c #43B3F4",
"{+	c #0E93F2",
"]+	c #148CE5",
"^+	c #2C94DB",
"/+	c #418EC4",
"(+	c #5AA3C5",
"_+	c #9CD7E8",
":+	c #D9FAFC",
"<+	c #46A548",
"[+	c #88C1D0",
"}+	c #0C8BEA",
"|+	c #B7E5FA",
"1+	c #44BCF3",
"2+	c #34B4F4",
"3+	c #3BB5F4",
"4+	c #45C4FD",
"5+	c #1993FC",
"6+	c #228EF1",
"7+	c #3585DC",
"8+	c #208414",
"9+	c #97BDD7",
"0+	c #5393AC",
"a+	c #59C6E9",
"b+	c #77E8FF",
"c+	c #48CAEE",
"d+	c #138CFD",
"e+	c #2398FA",
"f+	c #AADAF4",
"g+	c #ABF7FF",
"h+	c #97FAFF",
"i+	c #1492F3",
"j+	c #2693D9",
"k+	c #229814",
"l+	c #A1BECE",
"m+	c #99E9FF",
"n+	c #B9FFFF",
"o+	c #3AA6D7",
"p+	c #44B2EC",
"q+	c #4AA2CE",
"r+	c #1493FC",
"s+	c #1694EB",
"t+	c #2F89BD",
"u+	c #5887A6",
"v+	c #B4FFFF",
"w+	c #66C6F9",
"x+	c #A9D5E9",
"y+	c #47B6E8",
"z+	c #A8E7F6",
"A+	c #189AF7",
"B+	c #68A3BF",
"C+	c #76CCF0",
"D+	c #FBFBFB",
"E+	c #FDFDFD",
"F+	c #EBFEFF",
"G+	c #F4FCFC",
"H+	c #47A3C4",
"I+	c #0B8DF7",
"J+	c #249D16",
"K+	c #B8D3E6",
"L+	c #8CE6FF",
"M+	c #F5F6FB",
"N+	c #7A7A72",
"O+	c #8A7A85",
"P+	c #FCFCFC",
"Q+	c #7CB5CB",
"R+	c #3FB2DF",
"S+	c #E4FEFF",
"T+	c #F5FAF5",
"U+	c #82837B",
"V+	c #EDFCF5",
"W+	c #0F93FE",
"X+	c #BBD5F3",
"Y+	c #8CB1CD",
"Z+	c #55CAFC",
"`+	c #B1B0AF",
" @	c #050101",
".@	c #110010",
"+@	c #C7BCCC",
"@@	c #C4CBC4",
"#@	c #73A2BE",
"$@	c #EBECF2",
"%@	c #555053",
"&@	c #574C6B",
"*@	c #E8F5FC",
"=@	c #DDE0D9",
"-@	c #2AB7F9",
";@	c #58A2BB",
">@	c #DCFCFF",
",@	c #178AF9",
"'@	c #29BF17",
")@	c #699FC5",
"!@	c #58ABE4",
"~@	c #397CD2",
"{@	c #5DBCF5",
"]@	c #58B5E6",
"^@	c #47AE49",
"/@	c #6A99C4",
"(@	c #58B3D9",
"_@	c #198DE7",
":@	c #83F4FF",
"<@	c #739FC2",
"[@	c #516FA9",
"}@	c #695986",
"|@	c #7C76A2",
"1@	c #73B4DA",
"2@	c #554E6D",
"3@	c #984A66",
"4@	c #896489",
"5@	c #666CA6",
"6@	c #6382A7",
"7@	c #716C9B",
"8@	c #976684",
"9@	c #945779",
"0@	c #8F4E6C",
"a@	c #376AA3",
"b@	c #0D8ADA",
"c@	c #D6E7FA",
"d@	c #5A6694",
"e@	c #C8566A",
"f@	c #E55263",
"g@	c #D9667A",
"h@	c #B66A85",
"i@	c #AB667F",
"j@	c #975B81",
"k@	c #A56484",
"l@	c #C56A7E",
"m@	c #ED6473",
"n@	c #D9566E",
"o@	c #B74B66",
"p@	c #545B8B",
"q@	c #85EBFF",
"r@	c #84A8BE",
"s@	c #71496E",
"t@	c #F4636A",
"u@	c #F55E6C",
"v@	c #F36471",
"w@	c #E56876",
"x@	c #D66D87",
"y@	c #ED616A",
"z@	c #AD5E81",
"A@	c #1D8DF2",
"B@	c #197FC7",
"C@	c #D27084",
"D@	c #FA6466",
"E@	c #8FCFF3",
"F@	c #61BFE5",
"G@	c #4D8CAD",
"H@	c #4277C8",
"I@	c #775882",
"J@	c #C46E91",
"K@	c #469948",
"L@	c #26A416",
"M@	c #3C78C8",
"N@	c #416CB3",
"O@	c #7667A2",
"P@	c #26A915",
"Q@	c #258CE6",
"R@	c #26AA17",
"S@	c #48B349",
"T@	c #338EE1",
"U@	c #26AE16",
"V@	c #24A215",
"W@	c #26AF16",
"X@	c #4589B7",
"Y@	c #3489BB",
"Z@	c #74A9D1",
"`@	c #1E7812",
" #	c #469B48",
".#	c #27AC17",
"+#	c #208814",
"@#	c #1D7212",
"##	c #208113",
"$#	c #25A316",
"%#	c #27AB16",
"&#	c #229015",
"*#	c #208213",
"=#	c #1C6D12",
"-#	c #27AC16",
";#	c #27B017",
">#	c #28B517",
",#	c #27B516",
"'#	c #27B315",
")#	c #228D14",
"!#	c #259E16",
"~#	c #229315",
"{#	c #1E7713",
"    .   . + @ # $ $ % & * = .             - ; > , & ' + ) ! % ~ { ; $ ] ^ / ; (     .               ",
"    & _ . : < [   $ } | 1 [               _ ' 2 3 4 5 1 6 7 5 8 9 0 . a b c d _   [ e 0             ",
". e f g e 7 h i . _ 5 j k l m } ; n $   0 g o g _ p # + ' ; a q o e ( r 9 [       ( @ 2 (     [ [   ",
"( s t u v w f x y z d p A s d B ! p C i 0 q D E F G r y g y   v H 8 l I 8 $   .   J K L } 0 . M ' $ ",
"e r p w ^ v } N x 5 a l E r 8 + g * O x * P w Q R S } T N U C ^ U A V / g [ $ W [ $ ' > 4 } $ + X } ",
"5 e E Y 6 1 e [ _ < Z V 5 h i   $ M ` U K V  ...+.@.#.e $ $.X = @ Y $ e ( . i %.C   0 b o &.Y h *.=.",
"-.Y a ;.= . .         - % &.} Z q T >.a k V ^ ,.'.).!.V Z = < [ ~.      Z . i X {.Y P k ].r 9 ; L ^.",
". Z   _     ^ $       0 ;.* ^ 8 k W q s K /.(._.:.<.[.}.r |.} 0 -   [ 1 g i 0 9 # C g % P 1.8 8 |.V ",
"          [ h g [   0 } {.v M 1.l < ;.* 2.3.4.@.5.6.7.8.9.B *.0.0.[ 0 5 j g $.a.E >.M Z & 8 ' Z ( [ ",
"  $ ; 2.q _ b.| Y [ a | c.M 0 T j l _   Y q d.e.f.g.h.[.g q 9 0.{ Y Z ~.a.Q C i.5     [ $ .   [ [   ",
". e % l 2 j.b.P k.C 8 p B C [ Y K l.6 i g m.n.o.p.q.r.s.t.- P 6 u.4 9 1 @ E a g ^   [ V C $ - M C . ",
"  ( g b # x * 2 v.w.b.+ o x.8 y.r z.A.6 B.C.D.p.E.p.F.<.C.  . 0 . V * y 9.0 A.$.(.. G.6 H.Y y o 6 . ",
"    [ [ < % g *  .2 a 2 I.w.1.y.x $. .k _.'.J.K.L.L.M.N.O.P.= .   = a .   V @ v.B W _ ~ o y.=.Q.v . ",
"  ( q <   . - Y /.B + # * q Y % N g R.R '.f.L.K.S.S.T.r.U.V.C.(.~.@ '   [ % , > W.v E 1 %.;.y q y   ",
". ; z }.0 . 1 Q r 3 ^.V l 6 6 ; $.#.X.Y.5.Z.K.`.p.E. +q..+++@+#+#.$+1.0.e % 3 _ ( 5 M 1 2 $ $ i     ",
". 6 g 9.e a %+X Y ~.&+Y ( + y [ *+=+-+`.E.E.L.L.E.p.q.`.;+.+F.O.=+>+,+d % * '+1 v V   [ [           ",
". a 2 $.@ 2 )+r J         #.[.!+s.~+J. +L.L.E.L.Z.E.K.`.L.M.{+]+^+/+(+_+:+<+* r V     < e   . .     ",
"    % ].l.g g 1   . .   [+=+!+@+5.E.T. + + +p.Z.S.`.`. +K.p.S.M.}+++^+).n.[.% q   . i v B V i T 0 . ",
"    ( . ` W % : y M |+n.Y.D.1+~+f.2+p.L.p.L.3+4+L.K.2+2+p.L.L.S.;+}+5+6+6+7+(+|+<   M 4 H.8 r r x _ ",
". W < . . 2 j 8+v 9+0+a+b+c+J.J.q.p.`.K. +p.5.2+K.L.E.p.L.Z.L.L.E.M.5+d+5+e+^+7.>+1 j.Z g y.2 U | n ",
". s 1.^ = 2 3 K R 0+f+g+h+c+T.2+L. + + + + +Z.Z.p.;+Z.2+4+J.J.1+p.4+M.d+d+i+N.j+).S C a  .X ; k+^ . ",
". 6 ^.f s q % l+=+m+n+g+a+-+J.J.J.1+Y.'.o+Y.~+3+Z.p.5.p+O.q+e.'.p+3+Z.e+{+r+i+s+U.t+f+( < (.[ - .   ",
". e g ].| 1 ..u+f+n+v+w+-+3+E.J.@+n.x+m.4._+n.D.1+3+y+(+z+!.#.[.n.y+p.S.A+]+i+i+{+r.+.t.. . . y (.. ",
"    Y q i = B+C+n+v+b+@+f.L.E.o.@.4.D+E+D+F+n+n.p+1+n.4.G+E+E+F+z+H+3+L.s+A+i+r+I+{+6.P.$ . i q {.< ",
"    g J+g K+n.L+n+m+c+S.E.L.`.o+d.F+M+N+O+P+G+Q+-+R+[+S+T+N+U+V+F+_.V.p.;+{+W+W+r+}+e+O.X+$ M x.| * ",
". P % i.h Y+q+Z+b+a+2+L.E.Z.`.Y.x+M+`+ @.@+@E+,.g.Y._+V+`+ @ @@@G+,.o+f.;+A+W+I+d+r+i+V.,.l ! 7 @ Y ",
"M s } _ Q #@'.-+2+2+p.p.2+p.`.o+S G+$@%@&@*@G+d.@+V.S F+=@%@%@*@F+Q+-+L.E.A+I+W+r+5+}+V.R |.Q A.Q.P ",
"=.' (.# A C.y+`.p.Z.p.3+ + +-@R+;@#.F+G+G+F+m.=+p+p+=+>@G+D+D+G+m.(+3+-@T.e+r+r+d+,@s+V.#@E & g p '@",
". i   (.W )@~+E.p.3+Z.E.L. +L.4+o+;@n+S+>@|+(+'.~+f.!@#+m.S+>@|+!+'. +T.E.e+d+~@,@6+{@]@C.^@$ Z _ >.",
"      . - /@p+E.2+ +E.E.4+o.!@]@]@(@0+B+B+n.D.4+Z.Z.5.@+@.C.C.=+#+]@{@@+y+e+d+e+_@;+:@]@<@          ",
"    ( g k 9+V.L.L.p.E.f.!@[@}@|@/@!+(@!+y+1+`.-@L. +Z.4+1+g.D.X.1@/@|@2@[@).]+i+r.w+:@H+l+          ",
"    ; ' g !.).4+ +K.L.o.u+&@3@3@4@|@5@@.@.!+@+!@!@!+!@#+!+)@=+6@7@8@9@0@&@a@r.b@y+h+C+0+c@W .       ",
"  . P # K 5 C.!@Z.E.p.!@d@0@e@f@g@g@h@h@i@8@8@4@8@8@j@8@8@k@i@l@g@m@n@o@0@p@t+1+q@L+C.r@c.} .       ",
". < G.$ ( Y t.@.:.]+q.@+5@s@o@t@u@u@v@v@w@w@w@g@x@w@w@m@m@y@t@v@u@f@n@z@s@d@C+q@L+C+u+c@l a .       ",
". 6 y.y . ( r *+/+6.]+A@B@a@}@k@C@w@w@w@m@v@v@y@y@y@u@y@D@D@D@D@v@l@j@&@[@E@m+L+F@G@x+Y 2 .         ",
". 6 | } y l 5 |.[.e.6.i+5+<.H@d@I@j@k@h@J@J@x@x@x@x@C@C@x@C@l@i@9@s@5@H@C+m+L+1@0+S K@& _   $ _     ",
". Y q ].} # y.L@y.[.7.O.r.]+6.7+~@~@M@N@[@[@5@O@O@O@O@5@5@[@[@N@M@7+7+h.g.o.!+0+>+^  .w.y . a A.    ",
"  [ j.s P@;.q O @ v.m.(+O.^+Q@F.i+i+A@_@Q@<.~@M@H@H@H@M@~@~@Q@6+5+.+++6.O.e.;@m.V ;.8+R@s : j m     ",
"    8 U C 5 * h K C ; Y *+)@).j+++i+{+r+A@A@A@6+6+6+6+6+5+6+A@,@F.e+s.e.C.x+=.3.2 1 ^ l.A } i.5     ",
"    ' 0.I v <  .A v 0 $ 2 S@z+P.O.j+<.<.<._@N.++_@++Q@++Q@Q@T@T@6.s.1@f+K@0 v U@=.y.: @ 5 _ q y     ",
"    Z ; &+V@l C s a.* C % W@@ E m.f+d.)@=+X@+.Y@t+t++.+.X@@.Z@d.X+c@g d l [ $   = e _ q $   $       ",
"< *     . M f 2 % p k.% = g `@k g k+W Y :+m.|+f+f+f+|+|+c@#. #_ ^ X W y.' $     [ M ^ . $ + i       ",
"Y 7 M [ $ % .#|.% y.s V   < C (.0   M 7 V ( y n % +#K ; W V P y 2 V ( M ! ; $ - M , } i * 7 a . .   ",
"* w L e * ' W@ .# B =.;   V b $ 5 l * 6 L l X @#A.d |.##V   [ 5 I h l g +#$#* _ 6 %#r ] Q.&#W . n _ ",
"T 2 I.L % : q ! k # @ i = ^.*#( }.r s % O d 5 # 8 @#=#o L M V l -#@ 5 6 6 y / 8 8 L 7 8 ^ 0._ (.% 2 ",
"l W i &+a   : q 2 L r * % ;#w.) % 0.L 2 P _ %.K b g , v 3 =.7 * 6 } % A.w a q %.e k E 6 4 a [ } % I.",
"Q.x Z . - . _ # % $.>#2 2 b.+   P E 6 o & a 8+&#l E +#* . 0.' y k $ i a y [ j.0.x (.G.4 l.# > I Q d ",
",#p 1 e q (.i  .6 ^ '#C o )#r =   ; o !#8 ^ 6 =.( 0 Z ( 1 ( [   $   [ W $ [ g =.v.q * P /.y.^ , C g ",
"    C ;.2 5 8 h O ^.1 % I.6 y , e b Z v X % ~#q P .   * U } e <     ) 1.v [ ( e c s 5 Y y.^ _ &     ",
"    = K y.% k., * W.K X * ' 6 &+l + = {#Q q * y .     A.H 7 ^.g i . 0 K f C . .   T 0 Z y .   .     "};
