/* XPM */
static char *a5d1949c914540de8950dfcca0fe2d04x7DsbyYdmRkPKmY1[] = {
/* columns rows colors chars-per-pixel */
"50 50 215 2 ",
"   c #0D0B06",
".  c #0E0D08",
"X  c #070602",
"o  c #150C02",
"O  c #120E09",
"+  c #150900",
"@  c #1D1305",
"#  c #15120C",
"$  c #1C150C",
"%  c #1A1612",
"&  c #1C1912",
"*  c #1B1916",
"=  c #241B0C",
"-  c #2A1D0D",
";  c #271905",
":  c #231D14",
">  c #291F15",
",  c #241E18",
"<  c #34240C",
"1  c #352504",
"2  c #2B2214",
"3  c #25211C",
"4  c #2C241B",
"5  c #2E281C",
"6  c #322415",
"7  c #362915",
"8  c #3B2B14",
"9  c #31271C",
"0  c #342A1C",
"q  c #3C2E1D",
"w  c #3E311E",
"e  c #3F3117",
"r  c #2D2922",
"t  c #2B2A27",
"y  c #342C22",
"u  c #392E24",
"i  c #373024",
"p  c #3C3224",
"a  c #34312C",
"s  c #3C352C",
"d  c #3D392E",
"f  c #3B3731",
"g  c #42321C",
"h  c #443522",
"j  c #453925",
"k  c #4D3C24",
"l  c #41372E",
"z  c #443A2C",
"x  c #4A3D2A",
"c  c #513E27",
"v  c #443D33",
"b  c #4A3F32",
"n  c #4D4129",
"m  c #54442D",
"M  c #59462D",
"N  c #5C4B2D",
"B  c #544027",
"V  c #4B4234",
"C  c #4D443A",
"Z  c #47443F",
"A  c #534533",
"S  c #564835",
"D  c #5C4B35",
"F  c #554B3B",
"G  c #5B4D3B",
"H  c #564735",
"J  c #5E523D",
"K  c #604F3B",
"L  c #604F35",
"P  c #625137",
"I  c #64543C",
"U  c #69563B",
"Y  c #6C593D",
"T  c #715C3F",
"R  c #544C42",
"E  c #5A4F42",
"W  c #524D4A",
"Q  c #5C5244",
"!  c #59554D",
"~  c #5A5853",
"^  c #4C4741",
"/  c #635542",
"(  c #655844",
")  c #6B5B44",
"_  c #62564A",
"`  c #655A4C",
"'  c #6B5D4B",
"]  c #685642",
"[  c #715F4B",
"{  c #765E42",
"}  c #665D54",
"|  c #6E614C",
" . c #726146",
".. c #73634C",
"X. c #7A664D",
"o. c #7B6A4F",
"O. c #76684E",
"+. c #6E6252",
"@. c #6B645B",
"#. c #736552",
"$. c #786753",
"%. c #766954",
"&. c #7B6B54",
"*. c #766A5A",
"=. c #7C6D5B",
"-. c #71675D",
";. c #7E715C",
":. c #6D6A65",
">. c #796F63",
",. c #7E7264",
"<. c #77736A",
"1. c #816F57",
"2. c #827154",
"3. c #83735C",
"4. c #8A775B",
"5. c #8A795E",
"6. c #887559",
"7. c #937D5C",
"8. c #847562",
"9. c #887762",
"0. c #867964",
"q. c #8B7B64",
"w. c #857A6A",
"e. c #8C7D6A",
"r. c #82766A",
"t. c #917E63",
"y. c #907E6A",
"u. c #8F816C",
"i. c #8F8166",
"p. c #928166",
"a. c #998566",
"s. c #93836C",
"d. c #99866B",
"f. c #9B8A6D",
"g. c #97896F",
"h. c #8F8271",
"j. c #87847B",
"k. c #948572",
"l. c #988773",
"z. c #968872",
"x. c #9B8B74",
"c. c #9C8C7A",
"v. c #978A79",
"b. c #9F9177",
"n. c #9E917D",
"m. c #A08D6D",
"M. c #A4906F",
"N. c #A18E73",
"B. c #A18F7B",
"V. c #A29275",
"C. c #A99577",
"Z. c #A4937B",
"A. c #A9967C",
"S. c #A7997F",
"D. c #AB9A7D",
"F. c #B19C7D",
"G. c #9F9381",
"H. c #A59582",
"J. c #A69984",
"K. c #AB9B83",
"L. c #AD9E8A",
"P. c #A69888",
"I. c #B29F84",
"U. c #AFA187",
"Y. c #AFA18A",
"T. c #B3A286",
"R. c #B3A38B",
"E. c #B9A68A",
"W. c #B7A98F",
"Q. c #BAA98D",
"!. c #BAA786",
"~. c #B4A592",
"^. c #B8A795",
"/. c #B7A894",
"(. c #BBAB93",
"). c #BDAD9A",
"_. c #B9A799",
"`. c #BEB19F",
"'. c #C1AE8F",
"]. c #C4B08F",
"[. c #C1AF92",
"{. c #C0AF9D",
"}. c #C3B295",
"|. c #C4B39B",
" X c #C9B79C",
".X c #C7B89C",
"XX c #CBBA9D",
"oX c #C8B897",
"OX c #D1BE9D",
"+X c #C1AFA1",
"@X c #C4B5A2",
"#X c #C9B7A2",
"$X c #CCBCA3",
"%X c #CEBEAB",
"&X c #C6BAA4",
"*X c #D0BFA4",
"=X c #D0BFAB",
"-X c #CEC0AC",
";X c #CFC0A3",
":X c #D3C2A4",
">X c #D4C4AC",
",X c #D9C6AC",
"<X c #D7C9AD",
"1X c #DAC9AD",
"2X c #D4C5B2",
"3X c #DBCBB3",
"4X c #DDCEBA",
"5X c #D7C8B5",
"6X c #E1CFB4",
"7X c #E3D1B7",
"8X c #E4D3BB",
"9X c #E9D7BB",
"0X c #DFD2C1",
"qX c #EADAC6",
"wX c #F1E0C6",
/* pixels */
"p v i V V 0 V V 6 2 w h G +.P.w.q.g.=.q.s.z.s.g.u...&.x.| | | J S | *.+.+.! w 5 2 4 2 a s : r l 3 3 ",
"C p 2 V C 7 z ( 0 J S V A ( K.u.Z.W.O.X.q.&.) ) H./ J ;.J A h n s | 0.Q F | $ $ 2 2 $ i r O : u % % ",
"Q | F E | J #.,.n.v...u.0./ %.&.&.5.A.}.(.(.n.q.;.0.q.%.| b.| J u.,.u.G.G.+.J ;.+.` ! Q b s v r > 4 ",
"+ p w o o = w w | / 7 i.3.k ( g e 8 5.i.I i.&.< M D I M | i.e 7 i.V w j F 2 d ,.: C ` & = o # + = : ",
"Q Q J J ;.;.;.5.U.W.T.(.K.i.x.E.R.R.(.Q.K.|..XS.Y.(.&X(.;X;XY.n.(.H.H.J.G.h.G.v.k.w.,.E -.} -.` W Q ",
"w 7 n %.i.F  .x.D I 5.;. .C.}.4.K.U.x.x.(.(.S.K.|.K.q.U.g.%.| | (  .J.( V k.A w j z 6 u Q y u u = $ ",
"D | i.x.h. .;.S.q.2.x.D.K.:X>X XXX6X;Xx.q.x.A.R.XX;XU.$XS.i.;.b.z.Z.R.q.Z.Y.=.=.,.;.*.@.[ _ } _ C C ",
"- D %.I m e D  .x.V.Y 5.}.K.x.f.x.K.Y..X}.W..Xg.5.S.S.q.S.i. .S.;XU.R.U.W.K.|.0.' ' k.*.*.*.' b b C ",
"< D ) m I ) [ [ t.d.q.A.d.d.A.A.W.S.W.;XW.W.Q.g.b.g.b.g.).b.2.g.R.S.q.q.p.f.K.e.[ [ l.8.=._ H 0 E H ",
"..&.q.V.&.3.x.R.N.Z.R.I.N.^.|.K.Y.>X4X5X<X<X;XoX(..X<XoXT.W.T.x.K.T.<X<X-X|.s...w.3.y.e.l.3.3.w.E F ",
") ) =.d.&.M P b.1.y.s.x.y.I.#X{ O.R.:XoXOX`.!.:X(.XX<XoXq.p.b.3.3.p.(.R.}.:Xq.I ] ] X.=.l.8.8.s.- - ",
"D x.g.6.f.f.g.b.I.*X X$X3X6X3X,X.X>X3X<X<XoX`.;XOXoX;X<X3X6X8X7XXX.X$X(.(.(.(.;X3X).{.H.~.B.c.k.e.r.",
"4.}.m 1 n D I O.I.q.X.K.,X3X X#X%X5X6X<XoXW.:X;XD.!.!.!.:X6X$X:X<X(.x.s.V.H.S.(.D k 2.) ) D I D E u ",
"d.F.a.o.d.M.m.D.{.|.Z.#X9X9X=X%X<X4X5X6X<X(.:XOXoXoX$X:X$X9XXXXX3X5X;XQ.|.>X}.|.s.3.(.A.A.x.R.V.y.9.",
"N 1 7.F.F.f.D.W.A.C.T.V.B.$X(.I.&X3X$X.XoXW.}.:X!.m.D.:X1X9X3X>X8X3X3X-X>X$XK.K.U.K.S.K.*X|.^.K.h c ",
"f.D.C.D.!.S.(.OX:X>X*XQ. X6XXX[.;X7X$X(.(.:XOX}.;X!.XX9X7X X$X*X3X>X|.}.&X|.D.q.3.d.2.x.[.t.6.f.) G ",
"i.T.Y  .=.D x.R.OX7X,X7XoXM.!.m.d.C.!.U.i.p.oXoX(.(.(.;X<X}.b.b.OXS.4.a.M.F.!.C.m.5.C.p.1.{ U P  .0.",
"4.U.x.p.s.Z.R.V.I.wX7X9X].a.7.M.f.p.m.p.T 5.:X.X(.!.R.oXXXb.=.d.oXa.o.2.a.F.oXC.6.{ m.2.U X.N g I q.",
"5.5. .x.$X(.V.<X[.N.!.!.F.].OXOXOX<X<XOX3X<X:X&XXXXX;X:X<X3XXXXXXX'.Q.oX:X].F.M.m.7.P 6.[.D.I.C.O.3.",
"m m ;.K.V.4.x. XH.9.m.m.7.a.OX'.XX:X:XXX:X#X(.:X<X`.(..X[.|.XXXXoXXXF.C.].(.i.2.T T c 2.C.p.N.x.O.I ",
"W.U.g.p.Q.R.K.(.[.'. X*X:X:XoX].oX!.(.OX:X<X:X3X>X$X$X).(.}. XQ.oX:X1X].'.I.m.I.m.t.C.l.K.E.Z.A.V.g.",
"}.:X< < (.y.&.=.B.I.A.}.].C.F.M.M.m.}.6X|.>XqX2X:X%X$X}.|.E.C.A.OX!.'.C.C.6.7.Q.m.t.C.B.$.U L c q.&.",
"S.}.T.D.(.[.{.Q.#X%X X[.,X:XOX*X}.:XXX1X6X<X&X|.%X2X2X$X}.oX'.!.}.}. XF.N.D.!.E.K.E.I.I.I.I.Z.H.Z.q.",
"U T O.U.g.4.I.^.I.[.I.I.I.}.!.m.!.!.i.i.b.n.K.@X^.H.|.}.s.6.C.T.!.oX6X,X7. X,XD.N.A.[.,X[.l.A.Z.c M ",
"s.g.s.W.U.n.}.(.K.W.}.Q.|. XE.D.K.|.K.[.K.@X|.@X#X).{.*X[.!.E.!.'.XX,X*X XXX|.(.[.|.XX|.$XR.D.^.d.s.",
"n 2.A.2. .Y &.m N.3X(.$XK.p.C.y...d.3XW.Z.~.@XY.~.H.B.x.I.E.a.I.T.d.t.p.E.C.d.>X(.|.K.o.s.4.y.K X.1.",
"N &.x.) O.o.D m (.`.k.|.R.) 1.1.q.g.%X3X^.^.-XK.P.K.K.B.K.m.M.[.}.A.A.S.|.K.K.3X$X|.K.=.x.q.y.] =.4.",
"4.V.x.(..X).&X(.R.(.{.|.|.#XR.l.V.3X).2X).K.;.Z.=X(.,XA.1.y.t.{ P p.>Xb.N.>X3X XU.n.R.).|.x.q.H.s.s.",
"&.[ D ^.W.Z..XY.3.=.s.K.~.#X=.G #.P./ k.~.n.s.g.=XI.=XC.k c M U D ;..Xf.Z.;Xb.s.3.3.V.L.l.[ ) l.) / ",
"d.I.K.P.(.`./.g.R.K.H.@X#X=X+X_.@X#X+X_.L.~.(.(.A.K.I.I.I.I.C.[.|.XXoXZ.U.W.U.W./.R.R.(.#X^.L.K.l.s.",
"&.P.3.h x 8 g g {.P.v.+X=XL.+X^.+X_.5X{...x.|.t.{ L M M 1.6.D N.`.D.4.O.) n u.Y.) ;.x.c.H.d.y.3.0.8.",
"1.c.K.q.x.x.k.s.).^.L.#X+X_.).+X+X=XqX4X$X2X$X^.L.[.E.K.+X[.B._.XXU.W.b.U.b.K.L.3.q.K.c.y.y.&.=.y.e.",
"..1.=.K.K.l.(.1.M =.D N.Z.Y.%XZ.~.`./.&X/.Y.v.-XqX-X2X5X5X-X-X0X2X6XR.) &.Z.) ) ) ) D s.(.K.(.f...) ",
"' w.=.q.l.c.^.y.I 4.q.L.Z.@X4X2X>X_./.2X`.~.Y.`.-X`.-X0X&X@X`.`.-X5Xb.&.3.A.9.e.9.$.9.V.W.A.Z.g.&.&.",
"#.;.=.9.y.y.e.y.}.c.A.L.e.&.;.%.( y.2XP.G./.h.u.s.0.,.0._.Y.H.).Y.5.&.i.v.c.~.x.[ =.^.c.g.i.&.) 0.0.",
"_ v.F ) [ H / 1._.R.R.).) / #.=.) c.=X^.P./.Y.w.G ( | *.L.@X~.(.Y.O.;.;.l.x._.l.$.9.L.Z.x.&.) ( ;.&.",
"G _ 8.H.G.G.L.G.y.e.B.L.P.).).^.).#X^.).%X#X>X#X~./.).R.L.c.y.x.u.G.g.;.0.c.%.=.e.k.*.;.n.k.z.;.( J ",
"2 - [ c.9.=.c.H h c ] y.B.(.[ #.H.@XL.c.k.8.9.{.~.H.(.c.z./ S / +.J.I @ n h.w = q x w *.G.*.*.*.D V ",
"D h.e.' =.y.y.y.B.y.B.H.H.^.B.c.^.#X^.{.^.L.H.K.|.).|.(.R.K.K.W.;X&XU.h.G.x.u.u.e.x.J.n.v.;.*.;.+.+.",
"+ %.0 0 6 h H y.9.] ) l.K k H A E y.).c.v.^.K h h D ) ) g.H g q.n.;.| Q | m k.h.' ( w.S j w - = p n ",
"n Q ( Q ] +.$.=.3.1.1.l.1.] ..=.e.B.L.P.B.B.$.' ..[ q.q.R.q.&.V.P.V.3.q.9.[ q.y.e.9.y.+.] E H b F V ",
"C S ) ` #.e.] 8 c c h ] y.I.^.K.).v.=.#.X.#.3.k.=.$.x.e...( ) #...g.K.l.y.$.c ] S K K K 9.H 7 } 5 2 ",
"s z ` ) +.8.] g c b k c =.H.^.l.Y.H.8.e.P.8.#.x.$.%.Z.0.' &.) #.&.K.e.&.9.) H ] ] H / E E u h H i 2 ",
"d n z V / Q / ] 9.9.y.B.9.k.l.q.#.0.~.`.B.k.l.q.9.k.K.0.Y.H.l.L.y.3.k.q.9.1.B.y.3.#.>.#.#.E b y d a ",
"2 5 i q l h E +.+._ =.9.=.0.] x ) #.c.8.H ;.l.;.' #.' ' K.%.#.l.e.%.#.V / Q $.>.b ] _ b l u u > 3 * ",
"i 5 C d b ` +.E h H +.[ e.H.8.3.v.H.c.;.e.h.#.n.H.c.~.e.0.u.;.8.w.w.=./ #.9.#.+.E _ _ R E ^ R a v f ",
"# & C 5 , l b 9 - 9 6 6 _ ' l 0 ;.%.J k A z j u.k.G #.A - 6 @ 0 l F E = 9 F > u g , , , r % 3 a % . ",
"& 3 r 3 y u H l E _ :.r.P.r.r.*.w.;.*.` | ' ' >.*.*.-.' J Q Q F ` F F p l _ @.b R l v ^ W Z W f 3 3 ",
"# # O   . O # 2 s d Q >.R l > v 4 u Q 4 5 v 9 2 > 4 > 2 C y $ V d o $ $ : <.j.5 :.~ :.@.~ ~ ~ * # * ",
". . . X     . 2 4 4 V ! v s , f s i R , 2 v v V a 4 9 4 l , $ d v i r : , a a t t t a * * * 3 X # # "
};
